<?xml version="1.0" encoding="utf-8"?>
<!-- Generator: Adobe Illustrator 23.0.6, SVG Export Plug-In . SVG Version: 6.00 Build 0)  -->
<svg version="1.1" id="Calque_1" xmlns="http://www.w3.org/2000/svg" xmlns:xlink="http://www.w3.org/1999/xlink" x="0px" y="0px"
	 viewBox="0 0 297.6 141.5" style="enable-background:new 0 0 297.6 141.5;" xml:space="preserve">
<style type="text/css">
	.st0{fill:#75C3FF;}
	.st1{fill:#3185FF;}
	.st2{fill:#212C52;}
</style>
<g>
	<path class="st0" d="M56.1,18.1H35.9v28.4H17.6v14.3c3-0.9,14.3-3.6,22.9,4.7c9.9,9.7,12.9,16.9,26.8,17.7c2.1,0.1,4.1-0.4,6-1.3
		V57.4H56.1V18.1z"/>
	<path class="st0" d="M109.6,50.5V37.7H89.4v30.1c5.2-4.5,11.4-8.2,19.9-7.7c7.5,0.4,13.7,4.9,18.6,10.6c0-0.2,0-0.3,0-0.5V50.5
		H109.6z"/>
</g>
<path class="st0" d="M89.4,88.2V67.8C83.5,73,78.8,79.2,73.3,81.9v13.7C77.9,92.5,83,89.5,89.4,88.2z"/>
<path class="st1" d="M52,105.8c7.9,0,14-5.3,21.3-10.2V81.9c-1.9,0.9-3.8,1.4-6,1.3c-13.9-0.7-16.9-8-26.8-17.7
	c-8.6-8.4-19.9-5.6-22.9-4.7v9.4c0,7.8,1.6,15.3,4.6,22.1l0-0.1C22.2,92.2,37.4,105.8,52,105.8z"/>
<path class="st1" d="M109.3,60.1c-8.5-0.5-14.7,3.2-19.9,7.7v20.4c2.1-0.4,4.4-0.7,6.8-0.7c9.9,0,18.2,4.9,24.3,10.2
	c4.6-8,7.3-17.2,7.4-27.1C123,65,116.8,60.5,109.3,60.1z"/>
<path class="st2" d="M96.3,87.6c-2.4,0-4.7,0.3-6.8,0.7c-6.4,1.3-11.5,4.2-16.2,7.4c-7.3,4.9-13.3,10.2-21.3,10.2
	c-14.7,0-29.8-13.7-29.8-13.7l0,0.1c8.5,19.5,28,33.1,50.6,33.1h0c20.4,0,38.2-11.1,47.8-27.6C114.5,92.5,106.1,87.6,96.3,87.6z"/>
<path class="st2" d="M154.8,18.2c4.4,0,8.1,1.3,11,3.8c2.9,2.5,4.3,5.9,4.3,10.1c0,4.2-1.4,7.6-4.4,10.2c-2.9,2.6-6.6,3.9-10.9,3.9
	H145V18.2H154.8z M152.3,24.9v14.9h2.4c4.6,0,7.9-2.9,7.9-7.5c0-4.8-3.2-7.3-7.9-7.3H152.3z"/>
<path class="st2" d="M178.5,21.8c-2.5,0-4.5-1.9-4.5-4.3s2-4.3,4.5-4.3s4.5,1.9,4.5,4.3C183.1,19.9,181.1,21.8,178.5,21.8z
	 M182.2,25v21.3h-7.3V25H182.2z"/>
<path class="st2" d="M203.1,25h6.7v18.7c0,7.3-4.5,10.8-11.4,10.8c-4.1,0-7.7-1.3-10.7-3.8l3.7-5.1c2.1,1.6,4.2,2.4,6.3,2.4
	c2.8,0,4.9-1.2,4.9-3.7v-0.8c-1.3,1.3-3.2,2-5.6,2c-2.9,0-5.4-0.9-7.3-2.9c-1.9-1.9-2.8-4.4-2.8-7.6s0.9-5.7,2.9-7.6
	s4.3-2.8,7.2-2.8c2.8,0,4.9,0.9,6.2,2.7V25z M194.3,34.8c-0.2,4.3,4.8,5.8,7.1,3.3c0.8-0.8,1.2-2,1.2-3.4c0-2.9-1.9-4.2-4.1-4.2
	C196.1,30.6,194.3,32.1,194.3,34.8z"/>
<path class="st2" d="M219.2,21.8c-2.5,0-4.5-1.9-4.5-4.3s2-4.3,4.5-4.3s4.5,1.9,4.5,4.3C223.7,19.9,221.7,21.8,219.2,21.8z
	 M222.9,25v21.3h-7.3V25H222.9z"/>
<path class="st2" d="M243.4,40.2v6.1c-1.4,0.3-2.9,0.5-4.3,0.5c-6,0-9.4-2.9-9.4-8.6v-7h-3.2V25h3.2v-5.1h7.3V25h5.7v6.1h-5.7v6.3
	c0,2,1,2.8,3.7,2.8C241,40.3,241.9,40.2,243.4,40.2z"/>
<path class="st2" d="M267.1,34v12.3h-6.7v-1.7c-1.6,1.5-3.6,2.3-6.1,2.3c-4.6,0-7.3-2.9-7.3-6.6c0-4,3.2-6.3,8.3-6.3h4.5v-0.3
	c0-1.7-1-2.7-3.2-2.7c-1.9,0-3.3,0.8-5.3,2.6l-3.4-4.6c2.8-2.9,6-4.3,9.6-4.3C263.4,24.5,267.1,27.8,267.1,34z M259.8,38.5v-0.2
	h-3.4c-1.3,0-2,0.6-2,1.6c0,1.1,0.7,1.7,2.2,1.7C258.4,41.6,259.8,40.4,259.8,38.5z"/>
<path class="st2" d="M280,14.4v31.9h-7.3V14.4H280z"/>
<path class="st2" d="M176.7,57.5h8.2l-11.6,28.6H171l-7.1-14.7l-7.2,14.7h-2.3l-11.6-28.6h8.2l5.3,13.5l6.5-14h2.3l6.5,14
	L176.7,57.5z"/>
<path class="st2" d="M205.5,73.3v12.3h-6.7v-1.7c-1.6,1.5-3.6,2.3-6.1,2.3c-4.6,0-7.3-2.9-7.3-6.6c0-4,3.2-6.3,8.3-6.3h4.5v-0.3
	c0-1.7-1-2.7-3.2-2.7c-1.9,0-3.3,0.8-5.3,2.6l-3.4-4.6c2.8-2.9,6-4.3,9.6-4.3C201.8,63.8,205.5,67.1,205.5,73.3z M198.2,77.8v-0.2
	h-3.4c-1.3,0-2,0.6-2,1.6c0,1.1,0.7,1.7,2.2,1.7C196.8,80.9,198.2,79.7,198.2,77.8z"/>
<path class="st2" d="M225.7,79.5v6.1c-1.4,0.3-2.9,0.5-4.3,0.5c-6,0-9.4-2.9-9.4-8.6v-7h-3.2v-6.1h3.2v-5.1h7.3v5.1h5.7v6.1h-5.7
	v6.3c0,2,1,2.8,3.7,2.8C223.3,79.6,224.2,79.5,225.7,79.5z"/>
<path class="st2" d="M250.1,77.5h-13.6c0.8,1.6,2.4,2.4,4.8,2.4c1.9,0,3.7-0.6,5.6-1.7l2.6,5c-2.5,1.9-5.4,2.9-8.5,2.9
	c-3.5,0-6.3-1.1-8.6-3.1c-2.3-2.1-3.4-4.8-3.4-8c0-3.1,1.1-5.8,3.3-7.9c2.2-2.2,4.9-3.2,8.1-3.2c3.1,0,5.5,1,7.4,2.9
	c1.9,2,2.8,4.3,2.8,7.1C250.6,75.2,250.4,76.4,250.1,77.5z M236.3,72.8h7.4c0-1.9-1.6-3.2-3.5-3.2C238.3,69.6,236.8,70.7,236.3,72.8
	z"/>
<path class="st2" d="M269.5,64.3v6.5h-1.7c-3.4,0-5.1,1.5-5.1,5.1v9.7h-7.3V64.3h6.7v2.3c1.4-1.7,3.1-2.6,5.4-2.6
	C268.1,64,268.8,64.1,269.5,64.3z"/>
<g>
	<path class="st1" d="M191.1,100.4c-2.5,0-4.5-1.9-4.5-4.3s2-4.3,4.5-4.3s4.5,1.9,4.5,4.3C195.7,98.5,193.7,100.4,191.1,100.4z
		 M194.8,103.7v21.3h-7.3v-21.3H194.8z"/>
	<path class="st1" d="M215.4,118.8v6.1c-1.4,0.3-2.9,0.5-4.3,0.5c-6,0-9.4-2.9-9.4-8.6v-7h-3.2v-6.1h3.2v-5.1h7.3v5.1h5.7v6.1h-5.7
		v6.3c0,2,1,2.8,3.7,2.8C213,118.9,213.9,118.8,215.4,118.8z"/>
	<path class="st1" d="M234.3,103.7h7.7l-10,22.4c-2.2,4.8-4.9,7-9.3,7c-1.3,0-2.7-0.2-4.1-0.5v-6.1c1.4,0,2.2,0.1,2.5,0.1
		c2,0,3.3-0.5,4.2-2.5l0.3-0.7l-7.8-19.7h7.8l4.1,12L234.3,103.7z"/>
	<path class="st1" d="M147.2,125.4c-2.5,0-4.5-1.9-4.5-4.3s2-4.3,4.5-4.3s4.5,1.9,4.5,4.3C151.7,123.5,149.7,125.4,147.2,125.4z"/>
	<path class="st1" d="M183.3,103.9l-5.6,3.8c-1.8-3.1-4.3-4.6-7.3-4.6c-2.3,0-4.1,0.7-5.5,2.2c-1.4,1.4-2.1,3.4-2.1,5.7
		c0,4.7,3.1,7.8,7.7,7.8c3.1,0,5.5-1.5,7.3-4.6l5.6,3.8c-2.6,4.8-7.2,7.5-12.9,7.5c-4.3,0-7.8-1.4-10.8-4.2
		c-2.9-2.8-4.4-6.3-4.4-10.4s1.4-7.6,4.4-10.3c2.9-2.8,6.6-4.2,10.8-4.2C176.1,96.3,180.7,99.1,183.3,103.9z"/>
</g>
</svg>
